<?xml version="1.0" encoding="utf-8"?>
<!-- Generator: Adobe Illustrator 26.0.0, SVG Export Plug-In . SVG Version: 6.00 Build 0)  -->
<svg version="1.1" id="Layer_1" xmlns="http://www.w3.org/2000/svg" xmlns:xlink="http://www.w3.org/1999/xlink" x="0px" y="0px"
	 viewBox="0 0 2000 2000" style="enable-background:new 0 0 2000 2000;" xml:space="preserve">
<style type="text/css">
	.st0{fill:#FFFFFF;}
</style>
<g>
	<path d="M-321.39,1083.78c-52.17,0-101.28-13.22-144.25-36.52l-25.61,52.94c50.71,27.12,108.51,42.47,169.85,42.47
		c115.95,0,219.21-54.88,285.85-140.33h-79.16C-169.12,1052.9-241.68,1083.78-321.39,1083.78z"/>
	<polygon points="-257.06,900.71 -257.06,950.61 -134.29,856.35 -253.1,744.66 -253.1,792.98 -379.84,792.98 -253.1,491.99 
		-253.1,713.77 -150.48,810.84 -147.93,299.5 -260.23,299.5 -670.52,1146.76 -534.28,1149.43 -424.19,900.71 	"/>
	<path d="M-586.88,927.96c-25.57-45.2-40.19-97.55-40.19-153.36c0-155.44,113.42-284.07,261.11-305.89l29.95-61.85
		c-194.2,7.77-349.29,169.43-349.29,367.74c0,79.59,24.98,153.29,67.45,213.5L-586.88,927.96z"/>
	<polygon points="-150.68,984.87 -150.68,893.63 -257.19,984.87 	"/>
</g>
<g>
	<g>
		<path class="st0" d="M1245.84,1191.92l-148.27-139.39v57.11H880.12l195.61-464.51l21.83,4.41v325.78l130.42,123.35l3.61-724.75
			h-148.91l-600.9,1240.82l177.87,3.5l34.53-78.01l48.8-110.29l80.73-182.39h267.94v62.72L1245.84,1191.92z"/>
	</g>
	<g>
		<polygon class="st0" points="1091.66,1310.27 1091.66,1247.55 823.72,1247.55 742.99,1429.94 694.19,1540.23 659.66,1618.24 
			481.79,1614.74 1082.69,373.92 1231.59,373.92 1227.98,1098.67 1097.57,975.32 1097.57,649.54 1075.74,645.13 880.12,1109.64 
			1097.57,1109.64 1097.57,1052.53 1245.84,1191.92 		"/>
	</g>
	<g>
		<polygon class="st0" points="1091.66,1310.27 1091.66,1247.55 823.72,1247.55 742.99,1429.94 694.19,1540.23 659.66,1618.24 
			481.79,1614.74 1082.69,373.92 1231.59,373.92 1227.98,1098.67 1097.57,975.32 1097.57,649.54 1075.74,645.13 880.12,1109.64 
			1097.57,1109.64 1097.57,1052.53 1245.84,1191.92 		"/>
	</g>
	<g>
		<polygon class="st0" points="1227.55,1273.04 1227.55,1373.04 1110.83,1373.04 		"/>
	</g>
	<g>
		<polygon class="st0" points="1227.55,1273.04 1227.55,1373.04 1110.83,1373.04 		"/>
	</g>
	<g>
		<polygon class="st0" points="1227.55,1273.04 1227.55,1373.04 1110.83,1373.04 		"/>
	</g>
	<g>
		<path class="st0" d="M775.38,517.44c-68.72,29.08-130.42,70.67-183.37,123.62c-52.98,53-94.59,114.67-123.65,183.39
			C438.27,895.65,423,971.21,423,1049.08s15.27,153.43,45.36,224.62c16.74,39.6,37.66,76.85,62.49,111.45l48.84-100.86l12.9-26.65
			c-32.17-62.58-50.32-133.48-50.32-208.56c0-221.96,158.81-407.53,368.78-449.04l61.65-127.33
			C904.48,475.85,838.24,490.87,775.38,517.44z M1531.64,824.46c-29.05-68.72-70.67-130.39-123.65-183.39
			c-36.48-36.48-77.12-67.58-121.35-92.89l-0.57,112.45l-0.16,31.26c104.68,83.96,171.81,212.9,171.81,357.19
			c0,252.38-205.33,457.72-457.72,457.72c-74.76,0-145.41-17.99-207.79-49.93l-46.89,106l-1.5,3.36
			c10.34,5.13,20.85,9.95,31.55,14.49c71.19,30.1,146.75,45.37,224.62,45.37s153.43-15.27,224.62-45.37
			c68.72-29.08,130.42-70.67,183.37-123.62c52.97-53,94.59-114.67,123.65-183.39c30.1-71.19,45.36-146.75,45.36-224.62
			S1561.73,895.65,1531.64,824.46z"/>
	</g>
</g>
</svg>
